<?xml version="1.0" encoding="UTF-8"?>
<svg xmlns="http://www.w3.org/2000/svg" viewBox="0 0 748.2721 507.186">
  <defs>
    <style>
      .cls-1 {
        fill: #ffdc00;
      }

      .cls-2 {
        fill: #4d4d4d;
      }

      .cls-3 {
        fill: #fff;
      }

      .cls-4 {
        fill: #ea5504;
      }

      .cls-5 {
        fill: #f15a24;
      }

      .cls-6 {
        fill: #008db7;
      }
    </style>
  </defs>
  <g id="_レイヤー_2" data-name="レイヤー 2">
    <ellipse class="cls-3" cx="455.0134" cy="219.2266" rx="96" ry="174.8586" transform="translate(-48.6531 256.8775) rotate(-30)"/>
    <path class="cls-3" d="M328.1386,292.4778c38.1785,66.1271,43.6628,138.1951,7.5071,159.0696-36.1557,20.8745-100.2601-17.3493-138.4385-83.4763-38.1785-66.1271-35.4874-132.82-3.6625-157.5303,32.9759-25.6041,96.4155,15.8099,134.594,81.937Z"/>
    <path class="cls-3" d="M171.4765,395.7342c23.4332,40.5875,27.2883,84.5392,5.749,96.9749-21.5393,12.4357-60.3164-11.3537-83.7495-51.9412-23.4332-40.5875-22.339-81.2004-3.4293-96.007,19.5937-15.3421,57.9966,10.3858,81.4298,50.9733Z"/>
    <path class="cls-3" d="M79.2115,451.1275c13.0731,22.6433,15.6934,46.8631,3.6934,52.8644-12.4101,6.2064-34.136-5.0972-47.2091-27.7405-13.0731-22.6433-12.4627-45.3009-1.9132-53.5613,10.9311-8.5592,32.3557,5.7941,45.4289,28.4375Z"/>
  </g>
  <g id="_レイヤー_1" data-name="レイヤー 1">
    <path class="cls-2" d="M389.4602,34.9318c-11.2628,0-22.2589,2.5526-32.7812,7.9512-59.8604,30.7114-66.8867,136.4965-15.6938,236.2775,41.688,81.2546,109.1349,133.4756,165.0659,133.4756,12.7524,0,24.8995-2.7123,36.0138-8.4144,59.8605-30.7115,52.1813-131.1154.9884-230.8964-42.1941-82.2413-100.7832-138.3934-153.593-138.3934h0ZM511.4538,377.8957c-43.7168,0-99.8868-43.7616-137.5647-111.5525-46.0337-82.8253-47.0308-170.1552-2.2272-195.0568,8.1327-4.5201,17.2158-6.6725,26.9111-6.6726,43.7168-.0002,99.8868,43.7617,137.5646,111.5526,46.0337,82.8252,47.0311,170.1552,2.2273,195.0566-8.1327,4.5201-17.2158,6.6726-26.9111,6.6726h0Z"/>
    <polygon class="cls-4" points="0 502.2145 604.9656 119.8394 613.5039 133.6951 0 502.2145"/>
    <path class="cls-2" d="M195.2602,208.5793c-38.6191,23.171-40.2631,92.4529-7.8662,162.2958,26.5614,57.2627,74.5071,92.7555,113.8418,92.7555,9.1683,0,17.8652-1.927,25.7185-5.9562,2.1135-1.0844,4.0994-2.3003,5.9725-3.6285-5.1704,1.7032-10.439,2.5189-15.7625,2.5189-36.9347,0-76.6996-39.2186-107.5062-93.2137-35.1704-61.6438-40.3942-126.9451-14.3979-154.7718h0Z"/>
    <path class="cls-2" d="M40.6304,420.0749c-1.7672.2764-3.5.8046-5.1831,1.608-14.8782,7.1018-16.6245,31.564-3.9006,54.6377,10.3613,18.7897,27.1251,30.8654,41.0266,30.8654,3.1696,0,6.1886-.6271,8.951-1.9457,2.3809-1.1365,4.3297-2.6875,5.8754-4.5826-.6074.5188-1.2532.9927-1.9417,1.4135-3.1459,1.9231-6.4352,2.8124-9.7886,2.8124-12.7211,0-26.399-12.7808-36.9893-30.3832-13.3818-22.2427-14.1349-45.9612-1.682-52.9769,1.1432-.644,2.3584-1.1234,3.6322-1.4485h0Z"/>
    <path class="cls-2" d="M93.7419,342.4646c-23.6125,14.2168-25.9187,57.8104-4.7853,99.0021,17.6538,34.4094,46.2161,56.5238,69.9016,56.5238,5.4004,0,10.5443-1.1486,15.251-3.5632,1.2703-.6517,2.449-1.3972,3.5769-2.1934-3.1329,1.0242-6.3258,1.515-9.5505,1.515-22.5358,0-46.7976-23.9276-65.5945-56.873-21.4512-37.598-24.6409-77.4222-8.7992-94.4113h0Z"/>
    <g>
      <path class="cls-5" d="M506.0524,396.1362c-50.9365-.0039-112.7773-51.2036-150.3867-124.5083-13.5889-26.4863-23.1211-53.7988-28.1865-80.2075,5.959,27.2969,16.8379,55.6802,31.9883,82.9385,39.9043,71.7983,100.9834,120.0376,151.9863,120.0371,5.1494,0,10.1387-.4819,14.9463-1.4404-6.3447,2.1133-13.1553,3.1807-20.3418,3.1807h-.0059Z"/>
      <path class="cls-2" d="M389.4389,34.9446c-11.2545-.0003-22.2451,2.5435-32.76,7.9382-59.8604,30.7115-66.8867,136.4966-15.6938,236.2775,41.6879,81.2546,109.1348,133.4756,165.0659,133.4756,12.7524,0,24.8997-2.7123,36.0138-8.4144,8.0726-4.1417,14.9059-9.5608,20.5807-16.0651l-12.2988-26.1384c-3.5457,3.6367-7.5342,6.7332-11.9817,9.2051-8.1327,4.52-17.2158,6.6726-26.9111,6.6726-43.7169,0-99.8868-43.7616-137.5647-111.5525-46.0338-82.8252-47.0308-170.1551-2.2272-195.0567,8.1263-4.5165,17.2034-6.6637,26.891-6.6637,4.0284,0,8.1617.3712,12.3772,1.0976l-14.3218-30.4377c-2.3994-.2244-4.7914-.338-7.1694-.3381h0Z"/>
    </g>
    <path class="cls-3" d="M484.4839,240.2173c12.9393,9.9186-80.5219,65.0651-91.8012,53.2931-7.2233-7.5388-26.8889-34.4444-26-51.4444.8513-16.2813,94.1619-68.3239,92.4444-52.1111-2.1988,20.7574,14.6901,42.0859,25.3567,50.2624Z"/>
    <polygon class="cls-6" points="604.5543 0 319.405 488.0188 305.4726 479.6064 604.5543 0"/>
    <polygon class="cls-1" points="748.2721 120.3727 275.9336 276.4212 271.0818 260.886 748.2721 120.3727"/>
    <polygon class="cls-4" points="465.379 222.6707 613.5039 133.6951 604.9655 119.8394 446.7091 219.8671 465.379 222.6707"/>
  </g>
  <g id="_レイヤー_3" data-name="レイヤー 3">
    <path class="cls-3" d="M286.2383,359.5758c12.9393,9.9186-46.9449,41.1454-58.2242,29.3734-7.2233-7.5388-24.858-29.5996-25.3568-50.2625-.3934-16.2988,59.9417-45.5861,58.2243-29.3733-2.1988,20.7574,14.6901,42.0859,25.3567,50.2624Z"/>
    <path class="cls-3" d="M154.5495,430.4377c7.1894,5.5111-35.2732,27.5111-41.5403,20.9702-4.0135-4.1888-13.8118-16.4464-14.089-27.9273-.2186-9.0561,42.4946-29.9785,41.5404-20.9702-1.2217,11.5334,8.1622,23.3841,14.0889,27.9273Z"/>
    <path class="cls-3" d="M68.2383,470.3991c3.4849,2.6714-20.628,15.64-23.6658,12.4695-1.9454-2.0304-6.695-7.9721-6.8293-13.5372-.106-4.3898,24.1284-16.8361,23.6658-12.4695-.5922,5.5906,3.9565,11.335,6.8293,13.5372Z"/>
  </g>
</svg>